<svg width="133" height="118" viewBox="0 0 133 118" fill="none" xmlns="http://www.w3.org/2000/svg">
<g filter="url(#filter0_d_140_3)">
<path d="M63.2788 77.1467L66.6988 88.4867C65.3788 89.5067 63.6688 90.3167 61.5688 90.9167C59.5288 91.5167 57.4288 91.8167 55.2688 91.8167C51.3688 91.8167 47.9488 91.0367 45.0088 89.4767C42.0688 87.8567 39.6388 85.5167 37.7188 82.4567L30.0688 70.2167C29.1688 68.7767 28.2688 67.7867 27.3688 67.2467C26.5288 66.6467 25.5388 66.3167 24.3988 66.2567V90.9167H9.99875V27.0167H30.9688C39.7888 27.0167 46.3888 28.7867 50.7688 32.3267C55.2088 35.8667 57.4288 40.7567 57.4288 46.9967C57.4288 51.9167 55.8988 55.9367 52.8388 59.0567C49.8388 62.1767 45.9688 64.2167 41.2288 65.1767C43.2088 66.1367 44.9488 67.7267 46.4488 69.9467L49.5088 74.6267C51.4288 77.5067 53.9488 78.9467 57.0688 78.9467C58.2088 78.9467 59.2888 78.8267 60.3088 78.5867C61.3288 78.2867 62.3188 77.8067 63.2788 77.1467ZM30.1588 38.9867H24.3988V54.8267H30.0688C34.5688 54.8267 37.8088 54.1967 39.7888 52.9367C41.7688 51.6167 42.7588 49.5767 42.7588 46.8167C42.7588 44.0567 41.6488 42.0767 39.4288 40.8767C37.2088 39.6167 34.1188 38.9867 30.1588 38.9867Z" fill="white"/>
</g>
<g filter="url(#filter1_d_140_3)">
<path d="M61.3784 63.9374C59.905 63.9374 58.631 63.6687 57.5564 63.1314C56.4817 62.5767 55.6497 61.8054 55.0604 60.8174C54.471 59.812 54.1764 58.6247 54.1764 57.2554C54.1764 55.8687 54.471 54.6467 55.0604 53.5894C55.667 52.532 56.473 51.7087 57.4784 51.1194C58.501 50.53 59.6537 50.2354 60.9364 50.2354C62.3924 50.2354 63.5797 50.5647 64.4984 51.2234C65.417 51.882 66.0497 52.818 66.3964 54.0314C66.7604 55.2274 66.8384 56.6227 66.6304 58.2174H58.2324C58.3364 58.876 58.683 59.4307 59.2724 59.8814C59.8617 60.3147 60.6677 60.5314 61.6904 60.5314C62.1584 60.5314 62.6524 60.436 63.1724 60.2454C63.6924 60.0374 64.1344 59.734 64.4984 59.3354L66.7084 61.6754C66.1364 62.3687 65.4257 62.9234 64.5764 63.3394C63.7444 63.738 62.6784 63.9374 61.3784 63.9374ZM61.0144 53.1214C60.321 53.1214 59.7317 53.3294 59.2464 53.7454C58.7784 54.1614 58.4664 54.742 58.3104 55.4874H63.2764C63.2937 54.6727 63.0944 54.0747 62.6784 53.6934C62.2797 53.312 61.725 53.1214 61.0144 53.1214ZM82.0711 50.4954V63.6774H78.0671L78.1971 61.7014C77.2438 63.192 75.8311 63.9374 73.9591 63.9374C72.7804 63.9374 71.7751 63.6687 70.9431 63.1314C70.1111 62.594 69.4784 61.8487 69.0451 60.8954C68.6118 59.942 68.3951 58.85 68.3951 57.6194C68.3951 56.146 68.6984 54.8547 69.3051 53.7454C69.9118 52.636 70.7264 51.778 71.7491 51.1714C72.7718 50.5474 73.9158 50.2354 75.1811 50.2354C76.0131 50.2354 76.7498 50.4087 77.3911 50.7554C78.0324 51.0847 78.5264 51.5267 78.8731 52.0814L79.2111 50.4954H82.0711ZM75.5711 53.6934C74.6178 53.6934 73.8638 54.0487 73.3091 54.7594C72.7718 55.47 72.5031 56.38 72.5031 57.4894C72.5031 58.4427 72.7111 59.1794 73.1271 59.6994C73.5604 60.2194 74.1411 60.4794 74.8691 60.4794C75.7531 60.4794 76.5071 60.1154 77.1311 59.3874C77.7724 58.6594 78.0931 57.706 78.0931 56.5274C78.0931 55.6434 77.8678 54.95 77.4171 54.4474C76.9664 53.9447 76.3511 53.6934 75.5711 53.6934ZM98.1434 44.4374V63.6774H94.1394L94.2694 61.7274C93.316 63.2007 91.9034 63.9374 90.0314 63.9374C88.8527 63.9374 87.8474 63.6687 87.0154 63.1314C86.1834 62.594 85.5507 61.8487 85.1174 60.8954C84.684 59.942 84.4674 58.85 84.4674 57.6194C84.4674 56.146 84.7707 54.8547 85.3774 53.7454C85.984 52.636 86.7987 51.778 87.8214 51.1714C88.844 50.5474 89.988 50.2354 91.2534 50.2354C91.8427 50.2354 92.3887 50.322 92.8914 50.4954C93.394 50.6687 93.8274 50.9114 94.1914 51.2234L94.1654 50.4434V44.4374H98.1434ZM91.6434 53.6934C90.69 53.6934 89.936 54.0487 89.3814 54.7594C88.844 55.47 88.5754 56.38 88.5754 57.4894C88.5754 58.4427 88.7834 59.1794 89.1994 59.6994C89.6327 60.2194 90.2134 60.4794 90.9414 60.4794C91.8254 60.4794 92.5794 60.1154 93.2034 59.3874C93.8447 58.6594 94.1654 57.706 94.1654 56.5274C94.1654 55.6434 93.94 54.95 93.4894 54.4474C93.0387 53.9447 92.4234 53.6934 91.6434 53.6934Z" fill="white"/>
</g>
<g filter="url(#filter2_d_140_3)">
<path d="M81.4818 73.1964C83.3858 73.1964 84.8738 73.7404 85.9458 74.8284C87.0338 75.9164 87.5778 77.3884 87.5778 79.2444C87.5778 80.5084 87.3058 81.6364 86.7618 82.6284C86.2178 83.6204 85.4498 84.4044 84.4578 84.9804C83.4658 85.5564 82.2978 85.8444 80.9538 85.8444C79.0658 85.8444 77.5778 85.3004 76.4898 84.2124C75.4178 83.1244 74.8818 81.6604 74.8818 79.8204C74.8818 78.5404 75.1538 77.4044 75.6978 76.4124C76.2418 75.4204 77.0098 74.6364 78.0018 74.0604C78.9938 73.4844 80.1538 73.1964 81.4818 73.1964ZM81.1218 82.6524C81.9378 82.6524 82.5858 82.3484 83.0658 81.7404C83.5618 81.1164 83.8098 80.2844 83.8098 79.2444C83.8098 78.3484 83.5938 77.6524 83.1618 77.1564C82.7298 76.6444 82.1378 76.3884 81.3858 76.3884C80.5538 76.3884 79.8898 76.7004 79.3938 77.3244C78.9138 77.9324 78.6738 78.7564 78.6738 79.7964C78.6738 80.6924 78.8818 81.3964 79.2978 81.9084C79.7298 82.4044 80.3378 82.6524 81.1218 82.6524ZM95.7787 73.1964C97.6827 73.1964 99.1707 73.7404 100.243 74.8284C101.331 75.9164 101.875 77.3884 101.875 79.2444C101.875 80.5084 101.603 81.6364 101.059 82.6284C100.515 83.6204 99.7467 84.4044 98.7547 84.9804C97.7627 85.5564 96.5947 85.8444 95.2507 85.8444C93.3627 85.8444 91.8747 85.3004 90.7867 84.2124C89.7147 83.1244 89.1787 81.6604 89.1787 79.8204C89.1787 78.5404 89.4507 77.4044 89.9947 76.4124C90.5387 75.4204 91.3067 74.6364 92.2987 74.0604C93.2907 73.4844 94.4507 73.1964 95.7787 73.1964ZM95.4187 82.6524C96.2347 82.6524 96.8827 82.3484 97.3627 81.7404C97.8587 81.1164 98.1067 80.2844 98.1067 79.2444C98.1067 78.3484 97.8907 77.6524 97.4587 77.1564C97.0267 76.6444 96.4347 76.3884 95.6827 76.3884C94.8507 76.3884 94.1867 76.7004 93.6907 77.3244C93.2107 77.9324 92.9707 78.7564 92.9707 79.7964C92.9707 80.6924 93.1787 81.3964 93.5947 81.9084C94.0267 82.4044 94.6347 82.6524 95.4187 82.6524ZM104.1 85.6044V73.3884H107.748L107.604 75.9084C108.116 74.9644 108.756 74.2764 109.524 73.8444C110.292 73.4124 111.108 73.1964 111.972 73.1964C112.82 73.1964 113.58 73.4124 114.252 73.8444C114.924 74.2604 115.436 74.9404 115.788 75.8844C116.332 74.9724 117.02 74.3004 117.852 73.8684C118.7 73.4204 119.556 73.1964 120.42 73.1964C121.86 73.1964 122.94 73.6924 123.66 74.6844C124.38 75.6604 124.732 77.0684 124.716 78.9084L124.668 85.6044H120.996L121.044 78.9804C121.044 78.2444 120.908 77.6684 120.636 77.2524C120.364 76.8204 119.948 76.6044 119.388 76.6044C118.956 76.6044 118.548 76.7404 118.164 77.0124C117.796 77.2844 117.468 77.7564 117.18 78.4284C116.892 79.1004 116.66 80.0204 116.484 81.1884C116.324 82.3564 116.228 83.8284 116.196 85.6044H112.548V78.9804C112.548 78.2444 112.42 77.6684 112.164 77.2524C111.908 76.8204 111.5 76.6044 110.94 76.6044C110.508 76.6044 110.1 76.7404 109.716 77.0124C109.348 77.2844 109.02 77.7564 108.732 78.4284C108.444 79.1004 108.212 80.0204 108.036 81.1884C107.86 82.3564 107.764 83.8284 107.748 85.6044H104.1Z" fill="white" fill-opacity="0.9" shape-rendering="crispEdges"/>
</g>
<g filter="url(#filter3_d_140_3)">
<line x1="7.5" y1="106.041" x2="122.5" y2="106.041" stroke="white" stroke-width="7" stroke-linecap="round"/>
</g>
<defs>
<filter id="filter0_d_140_3" x="5.99878" y="27.0167" width="64.7" height="72.8" filterUnits="userSpaceOnUse" color-interpolation-filters="sRGB">
<feFlood flood-opacity="0" result="BackgroundImageFix"/>
<feColorMatrix in="SourceAlpha" type="matrix" values="0 0 0 0 0 0 0 0 0 0 0 0 0 0 0 0 0 0 127 0" result="hardAlpha"/>
<feOffset dy="4"/>
<feGaussianBlur stdDeviation="2"/>
<feComposite in2="hardAlpha" operator="out"/>
<feColorMatrix type="matrix" values="0 0 0 0 0 0 0 0 0 0 0 0 0 0 0 0 0 0 0.25 0"/>
<feBlend mode="normal" in2="BackgroundImageFix" result="effect1_dropShadow_140_3"/>
<feBlend mode="normal" in="SourceGraphic" in2="effect1_dropShadow_140_3" result="shape"/>
</filter>
<filter id="filter1_d_140_3" x="50.1763" y="44.4374" width="51.967" height="27.5" filterUnits="userSpaceOnUse" color-interpolation-filters="sRGB">
<feFlood flood-opacity="0" result="BackgroundImageFix"/>
<feColorMatrix in="SourceAlpha" type="matrix" values="0 0 0 0 0 0 0 0 0 0 0 0 0 0 0 0 0 0 127 0" result="hardAlpha"/>
<feOffset dy="4"/>
<feGaussianBlur stdDeviation="2"/>
<feComposite in2="hardAlpha" operator="out"/>
<feColorMatrix type="matrix" values="0 0 0 0 0 0 0 0 0 0 0 0 0 0 0 0 0 0 0.25 0"/>
<feBlend mode="normal" in2="BackgroundImageFix" result="effect1_dropShadow_140_3"/>
<feBlend mode="normal" in="SourceGraphic" in2="effect1_dropShadow_140_3" result="shape"/>
</filter>
<filter id="filter2_d_140_3" x="70.8818" y="73.1964" width="57.8577" height="20.648" filterUnits="userSpaceOnUse" color-interpolation-filters="sRGB">
<feFlood flood-opacity="0" result="BackgroundImageFix"/>
<feColorMatrix in="SourceAlpha" type="matrix" values="0 0 0 0 0 0 0 0 0 0 0 0 0 0 0 0 0 0 127 0" result="hardAlpha"/>
<feOffset dy="4"/>
<feGaussianBlur stdDeviation="2"/>
<feComposite in2="hardAlpha" operator="out"/>
<feColorMatrix type="matrix" values="0 0 0 0 0 0 0 0 0 0 0 0 0 0 0 0 0 0 0.25 0"/>
<feBlend mode="normal" in2="BackgroundImageFix" result="effect1_dropShadow_140_3"/>
<feBlend mode="normal" in="SourceGraphic" in2="effect1_dropShadow_140_3" result="shape"/>
</filter>
<filter id="filter3_d_140_3" x="0" y="102.541" width="130" height="15" filterUnits="userSpaceOnUse" color-interpolation-filters="sRGB">
<feFlood flood-opacity="0" result="BackgroundImageFix"/>
<feColorMatrix in="SourceAlpha" type="matrix" values="0 0 0 0 0 0 0 0 0 0 0 0 0 0 0 0 0 0 127 0" result="hardAlpha"/>
<feOffset dy="4"/>
<feGaussianBlur stdDeviation="2"/>
<feComposite in2="hardAlpha" operator="out"/>
<feColorMatrix type="matrix" values="0 0 0 0 0 0 0 0 0 0 0 0 0 0 0 0 0 0 0.25 0"/>
<feBlend mode="normal" in2="BackgroundImageFix" result="effect1_dropShadow_140_3"/>
<feBlend mode="normal" in="SourceGraphic" in2="effect1_dropShadow_140_3" result="shape"/>
</filter>
</defs>
</svg>
